<?xml version="1.0" standalone="no"?>
<!DOCTYPE svg PUBLIC "-//W3C//DTD SVG 20010904//EN"
 "http://www.w3.org/TR/2001/REC-SVG-20010904/DTD/svg10.dtd">
<svg version="1.0" xmlns="http://www.w3.org/2000/svg"
 width="713.000000pt" height="713.000000pt" viewBox="0 0 713.000000 713.000000"
 preserveAspectRatio="xMidYMid meet">
<metadata>
Created by potrace 1.11, written by Peter Selinger 2001-2013
</metadata>
<g transform="translate(0.000000,713.000000) scale(0.100000,-0.100000)"
fill="#000000" stroke="none">
<path d="M5420 6797 c-104 -266 -144 -367 -335 -857 -59 -151 -115 -293 -125
-315 -9 -22 -21 -51 -25 -65 -4 -14 -13 -38 -20 -55 -7 -16 -37 -91 -65 -165
-29 -74 -86 -220 -127 -325 -41 -104 -86 -219 -100 -255 -31 -83 -62 -159 -73
-185 -5 -11 -42 -108 -84 -215 -41 -107 -81 -208 -87 -225 -7 -16 -13 -32 -13
-35 -2 -7 -66 -169 -81 -205 -7 -16 -28 -68 -45 -115 -18 -47 -38 -98 -45
-115 -7 -16 -27 -68 -45 -115 -17 -47 -37 -98 -45 -115 -7 -16 -47 -117 -88
-223 -85 -219 -87 -196 14 -222 179 -47 394 -152 559 -274 167 -124 327 -300
441 -485 24 -39 47 -71 50 -71 3 0 34 69 69 153 101 245 129 311 305 732 91
220 177 425 190 455 14 30 99 235 191 455 91 220 172 414 179 430 8 17 134
318 280 670 146 352 272 654 280 670 10 24 400 956 526 1258 l28 67 -87 1
c-48 0 -409 2 -803 5 l-715 4 -104 -263z"/>
<path d="M13 7033 c4 -16 77 -189 437 -1043 43 -102 155 -369 250 -595 94
-225 178 -423 185 -440 20 -44 295 -699 386 -920 43 -104 85 -203 93 -220 15
-32 108 -253 124 -295 6 -14 19 -46 30 -70 11 -25 42 -99 70 -165 148 -356
315 -752 323 -770 5 -11 40 -94 78 -185 38 -90 73 -166 78 -167 4 -2 17 14 28
34 19 37 122 193 135 203 3 3 16 19 29 35 27 36 124 137 174 182 200 179 484
331 720 383 32 8 60 16 61 19 2 3 -11 44 -29 91 -32 82 -213 552 -297 770 -40
107 -43 114 -71 185 -21 53 -73 187 -291 755 -101 261 -187 484 -191 495 -5
11 -9 22 -10 25 -1 3 -5 14 -10 25 -4 11 -100 259 -212 550 -112 292 -257 666
-321 833 l-117 302 -829 0 c-784 0 -828 -1 -823 -17z"/>
<path d="M3518 2625 c-2 -1 -34 -5 -73 -9 -201 -17 -396 -84 -565 -194 -176
-114 -329 -280 -433 -468 -63 -115 -101 -225 -134 -384 -25 -123 -21 -347 7
-480 17 -77 19 -85 39 -146 98 -305 329 -575 623 -728 197 -103 357 -141 593
-141 139 0 183 5 285 29 278 65 511 210 696 431 279 333 365 806 224 1225 -61
180 -163 343 -305 485 -236 237 -527 364 -862 378 -51 2 -94 3 -95 2z m168
-881 c206 -62 328 -263 290 -479 -26 -151 -173 -294 -331 -324 -215 -40 -436
109 -480 325 -33 162 44 340 186 429 95 61 231 81 335 49z"/>
</g>
</svg>
